<?xml version="1.0" encoding="UTF-8"?>
<svg id="Layer_1" data-name="Layer 1" xmlns="http://www.w3.org/2000/svg" viewBox="0 0 229 281.22">
  <defs>
    <style>
      .cls-1 {
        stroke-width: 16px;
      }

      .cls-1, .cls-2 {
        fill: none;
        stroke: #000;
        stroke-linecap: round;
        stroke-linejoin: round;
      }

      .cls-2 {
        stroke-width: 20px;
      }
    </style>
  </defs>
  <g>
    <path class="cls-1" d="M97.4,162.7v-26l12.1,1.3c7.3-.4,13.1-6.1,13.7-13.3v-36.2c0-19.1-15.3-34.6-34.4-34.7-19.1,0-34.6,15.3-34.7,34.4,0,17.8,4.2,19.4,6.4,28.9,1.5,5.7,1.5,11.8.2,17.5l-6.5,28.2"/>
    <path class="cls-1" d="M167.2,148.7c18.6-18.6,18.6-48.7,0-67.4"/>
    <path class="cls-1" d="M149.5,130.9c8.7-8.7,8.7-22.8,0-31.4,0,0-.1-.1-.2-.2"/>
  </g>
  <path class="cls-2" d="M218.9,114.5c0,65.2-72.3,133.1-96.6,154.1-4.6,3.5-11.1,3.5-15.7,0C82.3,247.6,10,179.7,10,114.5S56.8,10,114.5,10s104.5,46.8,104.5,104.5"/>
</svg>